<svg xmlns="http://www.w3.org/2000/svg" viewBox="0 0 64 64" role="img" aria-label="SMOVE">
  <rect width="64" height="64" rx="14" fill="#273a41"/>
  <path d="M15 42c4.6 5 10.6 8 17 8 8.5 0 14.8-3.5 18-8.7 2.8-4.5 2.2-9.7-1.5-13.1-4.8-4.5-13-4-17.8-8.4-1.6-1.4-2.2-3.5-1.2-5.5 1.4-2.8 5.2-4.8 10.2-4.8 3.8 0 7.7 1.2 11 3.6l-3.6 5.2c-2.1-1.4-4.5-2.3-7.2-2.3-2.8 0-4.8 1-5.6 2.3-.5.8-.3 1.6.3 2.2 2.8 2.6 10.6 2.5 16.3 7.7 6.1 5.7 6.8 14.6 1.8 22.3C48.6 56.6 40.9 60 32 60c-8.8 0-16.9-3.4-23-9.8L15 42z" fill="#00b3e8"/>
</svg>
